<svg xmlns="http://www.w3.org/2000/svg" width="6.239" height="7" viewBox="0 0 6.239 7">
  <g id="document-sheets" transform="translate(-36.365 -9.569)">
    <path id="Контур_486" data-name="Контур 486" d="M97.441,11.177v-1.1a.508.508,0,0,0-.508-.508H92.965a.508.508,0,0,0-.508.508v.159h3.289a.928.928,0,0,1,.925.9h.56A.584.584,0,0,1,97.441,11.177Z" transform="translate(-55.295)" fill="#212226"/>
    <path id="Контур_487" data-name="Контур 487" d="M389.361,269.052v2.705h.26a.508.508,0,0,0,.508-.508v-2.238a.584.584,0,0,1-.212.04Z" transform="translate(-347.982 -255.758)" fill="#212226"/>
    <path id="Контур_488" data-name="Контур 488" d="M390.547,153.167l-.551-.482a.118.118,0,0,0-.077-.029h-.557v1.228h.555a.117.117,0,0,0,.079-.031l.553-.512a.117.117,0,0,0,0-.174Z" transform="translate(-347.982 -141.055)" fill="#212226"/>
    <path id="Контур_489" data-name="Контур 489" d="M40.45,89.232H36.828a.464.464,0,0,0-.463.463v4.942a.463.463,0,0,0,.463.463H40.45a.464.464,0,0,0,.463-.463V89.7A.464.464,0,0,0,40.45,89.232Zm-.911,3.552H37.727a.232.232,0,1,1,0-.465H39.54a.232.232,0,1,1,0,.465Zm.494-1.235h-2.8a.232.232,0,0,1,0-.465h2.8a.232.232,0,0,1,0,.465Z" transform="translate(0 -78.532)" fill="#212226"/>
  </g>
</svg>
