<svg xmlns="http://www.w3.org/2000/svg" width="10.768" height="10.027" viewBox="0 0 10.768 10.027">
  <g id="home-icon-silhouette" transform="translate(-0.001 -17.047)">
    <g id="Сгруппировать_507" data-name="Сгруппировать 507" transform="translate(0.001 17.047)">
      <g id="Сгруппировать_506" data-name="Сгруппировать 506" transform="translate(0 0)">
        <path id="Контур_483" data-name="Контур 483" d="M10.588,21.578,8.956,19.946V18.061a.617.617,0,0,0-1.234,0v.651L6.506,17.5a1.624,1.624,0,0,0-2.245,0l-4.08,4.08a.617.617,0,0,0,.873.873l4.08-4.08a.364.364,0,0,1,.5,0l4.081,4.081a.617.617,0,1,0,.873-.873Z" transform="translate(-0.001 -17.047)" fill="#FFFFFF"/>
        <path id="Контур_484" data-name="Контур 484" d="M72.734,127.837a.3.3,0,0,0-.429,0l-3.589,3.588a.3.3,0,0,0-.089.215v2.617a1.112,1.112,0,0,0,1.112,1.112h1.777v-2.752h2.006v2.752H75.3a1.112,1.112,0,0,0,1.112-1.112v-2.617a.3.3,0,0,0-.089-.215Z" transform="translate(-67.135 -125.342)" fill="#FFFFFF"/>
      </g>
    </g>
  </g>
</svg>
