<svg id="delete" xmlns="http://www.w3.org/2000/svg" width="5.339" height="7" viewBox="0 0 5.339 7">
  <path id="Контур_470" data-name="Контур 470" d="M73.474.636a.359.359,0,0,1,.372-.361h1.527a.359.359,0,0,1,.371.361v.4h.275v-.4A.634.634,0,0,0,75.373,0H73.846A.634.634,0,0,0,73.2.636v.4h.275Zm0,0" transform="translate(-71.94)" fill="#e35a5a"/>
  <path id="Контур_471" data-name="Контур 471" d="M28.756,128.867H32.01a.586.586,0,0,0,.557-.619V124H28.2v4.248a.586.586,0,0,0,.557.619Zm2.5-4.21a.138.138,0,1,1,.275,0v3.251a.138.138,0,0,1-.275,0Zm-1.015,0a.138.138,0,1,1,.275,0v3.251a.138.138,0,0,1-.275,0Zm-1.015,0a.138.138,0,1,1,.275,0v3.251a.138.138,0,0,1-.275,0Zm0,0" transform="translate(-27.714 -121.867)" fill="#e35a5a"/>
  <path id="Контур_472" data-name="Контур 472" d="M.344,68.688H4.995a.344.344,0,1,0,0-.688H.344a.344.344,0,1,0,0,.688Zm0,0" transform="translate(0 -66.83)" fill="#e35a5a"/>
</svg>
