<svg xmlns="http://www.w3.org/2000/svg" width="6.125" height="5" viewBox="0 0 6.125 5">
  <g id="arrow" transform="translate(0 -41.115)">
    <g id="Сгруппировать_553" data-name="Сгруппировать 553" transform="translate(0 41.115)">
      <path id="Контур_538" data-name="Контур 538" d="M2.5,45.74a.1.1,0,0,1-.008-.053c0-.014-.006-.026-.027-.035s-.031-.016-.031-.021-.015-.009-.045-.012l-.045,0H1.125a.6.6,0,0,1-.441-.184A.6.6,0,0,1,.5,44.99V42.24A.6.6,0,0,1,.684,41.8a.6.6,0,0,1,.441-.184h1.25a.118.118,0,0,0,.08-.025.13.13,0,0,0,.039-.076.657.657,0,0,0,.012-.092.972.972,0,0,0,0-.1q0-.062,0-.078a.127.127,0,0,0-.125-.125H1.125a1.084,1.084,0,0,0-.795.33A1.084,1.084,0,0,0,0,42.24v2.75a1.083,1.083,0,0,0,.33.795,1.083,1.083,0,0,0,.795.33h1.25a.119.119,0,0,0,.08-.025.13.13,0,0,0,.039-.076.659.659,0,0,0,.012-.092.971.971,0,0,0,0-.1Q2.5,45.756,2.5,45.74Z" transform="translate(0 -41.115)" fill="#fefefe"/>
      <path id="Контур_539" data-name="Контур 539" d="M114.184,52.445l-2.125-2.125a.25.25,0,0,0-.426.176v1.125h-1.75a.253.253,0,0,0-.25.25v1.5a.254.254,0,0,0,.25.25h1.75v1.125a.249.249,0,0,0,.426.176l2.125-2.125a.245.245,0,0,0,0-.352Z" transform="translate(-108.133 -50.121)" fill="#fefefe"/>
    </g>
  </g>
</svg>
