<svg xmlns="http://www.w3.org/2000/svg" width="8.913" height="10" viewBox="0 0 8.913 10">
  <g id="document-sheets" transform="translate(-36.365 -9.569)">
    <path id="Контур_486" data-name="Контур 486" d="M99.578,11.865V10.294a.725.725,0,0,0-.726-.725h-5.67a.725.725,0,0,0-.725.725v.227h4.7a1.325,1.325,0,0,1,1.322,1.287h.8A.834.834,0,0,1,99.578,11.865Z" transform="translate(-54.954)" fill="#FFFFFF"/>
    <path id="Контур_487" data-name="Контур 487" d="M389.361,269.069v3.865h.371a.725.725,0,0,0,.726-.726v-3.2a.836.836,0,0,1-.3.057Z" transform="translate(-345.834 -254.179)" fill="#FFFFFF"/>
    <path id="Контур_488" data-name="Контур 488" d="M391.055,153.386l-.788-.689a.168.168,0,0,0-.11-.041h-.8v1.754h.793a.167.167,0,0,0,.113-.044l.791-.731a.168.168,0,0,0,0-.248Z" transform="translate(-345.834 -140.184)" fill="#FFFFFF"/>
    <path id="Контур_489" data-name="Контур 489" d="M42.2,89.232H37.027a.662.662,0,0,0-.662.662v7.06a.662.662,0,0,0,.662.662H42.2a.662.662,0,0,0,.662-.662v-7.06A.662.662,0,0,0,42.2,89.232Zm-1.3,5.074H38.31a.332.332,0,1,1,0-.664H40.9a.332.332,0,1,1,0,.664Zm.706-1.765h-4a.332.332,0,0,1,0-.664h4a.332.332,0,0,1,0,.664Z" transform="translate(0 -78.047)" fill="#FFFFFF"/>
  </g>
</svg>
