<svg xmlns="http://www.w3.org/2000/svg" width="10.011" height="10" viewBox="0 0 10.011 10">
  <g id="wired-connection-silhouette" transform="translate(0 -0.275)">
    <g id="Сгруппировать_508" data-name="Сгруппировать 508" transform="translate(0 0.275)">
      <path id="Контур_485" data-name="Контур 485" d="M8.655,2.629H9.739a.273.273,0,0,0,.273-.273V1.273A.273.273,0,0,0,9.739,1H8.655a.273.273,0,0,0-.273.273v.208h-1.1a.812.812,0,0,0-.811.811v2.65H4.986V.753A.478.478,0,0,0,4.508.275H.478A.478.478,0,0,0,0,.753V9.8a.478.478,0,0,0,.478.478H1.793V8.295a.19.19,0,0,1,.19-.19H3a.19.19,0,0,1,.19.19v1.98H4.508A.478.478,0,0,0,4.986,9.8V5.608H6.474v2.65a.812.812,0,0,0,.811.811h1.1v.209a.273.273,0,0,0,.273.273H9.739a.273.273,0,0,0,.273-.273V8.195a.273.273,0,0,0-.273-.273H8.655a.273.273,0,0,0-.273.273V8.4h-1.1a.145.145,0,0,1-.145-.145V5.608H8.383v.209a.273.273,0,0,0,.273.273H9.739a.273.273,0,0,0,.273-.273V4.734a.273.273,0,0,0-.273-.273H8.655a.273.273,0,0,0-.273.273v.208H7.14V2.292a.145.145,0,0,1,.145-.145h1.1v.209A.273.273,0,0,0,8.655,2.629ZM2.077,7.2a.19.19,0,0,1-.19.19H1.132a.19.19,0,0,1-.19-.19V6.445a.19.19,0,0,1,.19-.19h.754a.19.19,0,0,1,.19.19V7.2Zm0-1.7a.19.19,0,0,1-.19.19H1.132a.19.19,0,0,1-.19-.19V4.748a.19.19,0,0,1,.19-.19h.754a.19.19,0,0,1,.19.19V5.5Zm0-1.7a.19.19,0,0,1-.19.19H1.132a.19.19,0,0,1-.19-.19V3.051a.19.19,0,0,1,.19-.19h.754a.19.19,0,0,1,.19.19V3.8Zm0-1.7a.19.19,0,0,1-.19.19H1.132a.19.19,0,0,1-.19-.19V1.354a.19.19,0,0,1,.19-.19h.754a.19.19,0,0,1,.19.19v.754ZM4.044,7.2a.19.19,0,0,1-.19.19H3.1a.19.19,0,0,1-.19-.19V6.445a.19.19,0,0,1,.19-.19h.754a.19.19,0,0,1,.19.19Zm0-1.7a.19.19,0,0,1-.19.19H3.1a.19.19,0,0,1-.19-.19V4.748a.19.19,0,0,1,.19-.19h.754a.19.19,0,0,1,.19.19Zm0-1.7a.19.19,0,0,1-.19.19H3.1a.19.19,0,0,1-.19-.19V3.051a.19.19,0,0,1,.19-.19h.754a.19.19,0,0,1,.19.19Zm0-1.7a.19.19,0,0,1-.19.19H3.1a.19.19,0,0,1-.19-.19V1.354a.19.19,0,0,1,.19-.19h.754a.19.19,0,0,1,.19.19Z" transform="translate(0 -0.275)" fill="#FFFFFF"/>
    </g>
  </g>
</svg>
