<svg xmlns="http://www.w3.org/2000/svg" width="7.034" height="10" viewBox="0 0 7.034 10">
  <g id="customer-support" transform="translate(-82.022 -8.666)">
    <path id="Контур_490" data-name="Контур 490" d="M88.62,11.1a3.168,3.168,0,0,0-6.161,0,.566.566,0,0,0-.437.55v.745a.567.567,0,0,0,.566.567h.371a.158.158,0,0,0,.158-.158V11.2a2.5,2.5,0,0,1,4.843,0v1.6a.158.158,0,0,0,.158.158h.371a.567.567,0,0,0,.566-.567v-.745A.566.566,0,0,0,88.62,11.1Z" fill="#FFFFFF"/>
    <path id="Контур_491" data-name="Контур 491" d="M95.993,241.176a1.275,1.275,0,0,1,.081.392,1.942,1.942,0,0,1-3.816,0,1.279,1.279,0,0,1,.081-.392,2.46,2.46,0,0,0-1.512,2.27v2.188a.842.842,0,0,0,.841.842h5a.841.841,0,0,0,.841-.842v-2.188A2.46,2.46,0,0,0,95.993,241.176Z" transform="translate(-8.627 -227.81)" fill="#FFFFFF"/>
    <path id="Контур_492" data-name="Контур 492" d="M150.972,71.047a2.171,2.171,0,0,0,1.805-1.219,2.972,2.972,0,0,0,.153-.321,2.62,2.62,0,0,0,.209-.989,2.167,2.167,0,1,0-4.334,0,2.634,2.634,0,0,0,.208.989,3.121,3.121,0,0,0,.153.321A2.172,2.172,0,0,0,150.972,71.047Zm0-3.895a1.367,1.367,0,0,1,1.365,1.366c0,.778-.63,1.727-1.365,1.727s-1.366-.95-1.366-1.727A1.367,1.367,0,0,1,150.972,67.153Z" transform="translate(-65.433 -56.519)" fill="#FFFFFF"/>
  </g>
</svg>
