<svg xmlns="http://www.w3.org/2000/svg" width="8.124" height="9" viewBox="0 0 8.124 9">
  <g id="filter" transform="translate(-24.927)">
    <path id="Контур_481" data-name="Контур 481" d="M73.473,97.772c.141.2.1.034.1,4.113a.444.444,0,0,0,.71.356c1.254-.946,1.5-1.028,1.5-1.47,0-2.973-.035-2.805.1-3L77.923,95H71.436Z" transform="translate(-45.691 -93.329)" fill="#212226"/>
    <path id="Контур_482" data-name="Контур 482" d="M33,.226A.419.419,0,0,0,32.628,0h-7.28A.42.42,0,0,0,25,.661l.354.482h7.262c.32-.436.534-.624.382-.917Z" transform="translate(0)" fill="#212226"/>
  </g>
</svg>
