<svg xmlns="http://www.w3.org/2000/svg" width="7.5" height="10" viewBox="0 0 7.5 10">
  <path id="identity-card" d="M75.258,6.2H69.55a.9.9,0,0,0-.9.9v8.208a.9.9,0,0,0,.9.9h5.708a.9.9,0,0,0,.9-.9V7.1A.9.9,0,0,0,75.258,6.2Zm-.945,8.52a.481.481,0,0,1-.481.481H70.976a.481.481,0,0,1-.481-.481V13.474a1.4,1.4,0,0,1,.648-1.181,1.38,1.38,0,0,0,2.522,0,1.4,1.4,0,0,1,.648,1.182ZM72.4,10.384a1.01,1.01,0,0,1,1.01,1.01,1.027,1.027,0,1,1-2.02,0A1.01,1.01,0,0,1,72.4,10.384ZM73.71,9.33H71.1a.333.333,0,0,1,0-.667H73.71a.333.333,0,1,1,0,.667ZM74.544,8H70.264a.333.333,0,0,1,0-.667h4.279a.333.333,0,0,1,0,.667Z" transform="translate(-68.654 -6.205)" fill="#FFFFFF"/>
</svg>
